<svg id="lessmore" xmlns="http://www.w3.org/2000/svg" viewBox="0 0 93 69"><path d="M59 0c-4.1 15.4-8.1 30.7-12.3 46-2.1 7.7-4.5 15.3-6.7 23h-6c4.1-15.2 8.1-30.4 12.3-45.5C48.4 15.6 50.8 7.8 53 0h6zM0 32c6.7-6 13.3-12.1 20-18.1 1.7-1.5 3.4-3 5.4-4.8 1.7 1.6 2.9 2.8 5.4 5.1-7.6 6.7-14.8 13-23.1 20.4 8.4 7.5 15.5 13.9 24 21.5-2.4 2.5-3.7 3.7-5.1 5.2C16.8 52.3 8.4 44.6 0 37v-5zM93 37c-8.4 7.6-16.8 15.3-25.6 23.3-1.4-1.3-2.7-2.4-5.7-5 7.9-6.6 15.4-12.8 24.4-20.3-9.1-7.9-16.3-14.2-24-20.8 2.5-2.4 3.7-3.5 5.1-4.9C76.1 17.1 84.6 24.5 93 32v5z"/></svg>