<svg version="1.1" id="Layer_1" xmlns="http://www.w3.org/2000/svg" x="0" y="0" viewBox="0 0 1004.9 413" xml:space="preserve"><path fill="#131313" d="M9 1h987.9c.1 1.2.3 2.3.3 3.5 0 47.3.1 94.6-.1 141.9 0 2.4-1.6 5.4-3.3 7.2C911 236.5 828.2 319.3 745.3 402c-1.8 1.8-5.1 3.2-7.7 3.2-156.4.1-312.9.1-469.3 0-2.6 0-5.9-1.3-7.7-3.2-83-82.7-165.7-165.6-248.6-248.3-2.4-2.4-3.4-4.9-3.4-8.3.1-46.5 0-93 .1-139.4 0-1.7.2-3.3.3-5z"/><path fill="#F40638" d="M1004.9 1c0 49.5.1 99-.1 148.5 0 2.6-1.4 5.8-3.2 7.7-84 84.3-168.2 168.4-252.2 252.6-2.5 2.5-4.9 3.3-8.3 3.3-158.8-.1-317.6-.1-476.4 0-3.4 0-5.8-1-8.2-3.4-84-84.2-168.2-168.3-252.3-252.5-.9-.9-2-1.4-3.1-2.1C1 103.7 1 52.3 1 1h8c-.1 1.7-.3 3.3-.3 5 0 46.5 0 93-.1 139.4 0 3.4.9 5.9 3.4 8.3C94.9 236.4 177.6 319.3 260.6 402c1.8 1.8 5.1 3.2 7.7 3.2 156.4.1 312.9.1 469.3 0 2.6 0 5.9-1.3 7.7-3.2 82.9-82.7 165.7-165.5 248.5-248.4 1.8-1.8 3.3-4.7 3.3-7.2.2-47.3.1-94.6.1-141.9 0-1.2-.2-2.3-.3-3.5h8z"/></svg>