<svg version="1.0" xmlns="http://www.w3.org/2000/svg" width="316" height="316" viewBox="0 0 237 237"><path d="M56.8 18.8c-.9 2-3 5.9-4.6 8.7-3.8 6.5-37.9 66-40.5 70.5C5.3 109.4 1.6 115.5.8 115.8c-1 .5-1.1 4.9 0 5.4.7.3 11.2 17.4 11.2 18.3 0 .2 1.9 3.6 4.3 7.7 2.4 4 5.5 9.3 6.9 11.8 1.4 2.5 9.8 17.2 18.6 32.6 8.9 15.5 16.2 28.7 16.2 29.3 0 .8 16.5 1.1 60.5 1.1 44.3 0 60.5-.3 60.5-1.1 0-.7 4.5-9 10-18.6 5.6-9.6 11.3-19.5 12.7-22.1 1.5-2.6 4.6-8 7-12 2.4-4.1 4.3-7.5 4.3-7.7 0-.2 2.7-4.9 6-10.5s6-10.3 6-10.5c0-.9 10.5-18 11.2-18.3 1-.5 1-4.9 0-5.4-.7-.3-11.2-17.4-11.2-18.3 0-.2-1.9-3.6-4.3-7.7-2.4-4-5.5-9.3-6.9-11.8-1.4-2.5-9.8-17.2-18.6-32.6-8.9-15.5-16.2-28.7-16.2-29.3 0-.8-17-1.1-60.2-1.1H58.5l-1.7 3.8zm75.6 57.7c1.8.9 5 3.4 7.2 5.6 3.1 3.2 3.7 4.3 2.8 5.7-1.9 3-6.3 2.7-9.8-.6-4.4-4.2-6.8-5.2-12.6-5.2s-9.9 1.8-12.9 5.6c-2 2.6-2.1 3.8-2.1 29.3v26.7l3.6 3.5c3.4 3.3 3.8 3.4 11.4 3.4 7.8 0 8-.1 11.7-3.8 2.2-2 4.8-3.7 6-3.7 2.1 0 5.3 2.4 5.3 3.9 0 1.2-9.4 9.7-13.5 12.2-5.6 3.4-15.9 3.3-20.5-.2-8.1-6.2-10-8.3-11.1-11.7-.6-2.4-.9-14-.7-32.7l.3-29 2.5-3.3c4.2-5.7 8.1-7.1 19.3-7.2 6.9 0 10.9.5 13.1 1.5z"/></svg>