<svg version="1.0" xmlns="http://www.w3.org/2000/svg" width="316" height="316" viewBox="0 0 237 237"><path d="M30.1 65C14.5 92.5 1.3 115 .9 115c-.5 0-.9 1.6-.9 3.5s.4 3.5.9 3.5 1.7 1.5 2.8 3.4c1 1.9 13.7 24.4 28.3 50l26.5 46.5h120l14-24.6c7.7-13.6 15.5-27.4 17.4-30.8 1.8-3.3 5.3-9.3 7.7-13.3 2.4-4 4.4-7.5 4.4-7.7 0-1 13.4-23 14.2-23.3 1.5-.6.9-6.9-.7-7.6-.8-.3-1.5-1-1.5-1.5s-2.7-5.6-6-11.3c-7.5-12.8-5.2-8.7-29.2-51l-20.3-35.7h-120L30.1 65zm102.4 12.1c4.2 2.2 9.4 7.5 9.5 9.6 0 1.8-3.7 3.5-6 2.8-1.1-.4-2.5-1.5-3.1-2.7-1.4-2.6-8.4-5.8-12.9-5.8-5.3 0-12.2 3.8-14.3 8-1.6 3.1-1.7 6.2-1.5 29.3l.3 25.9 3.7 3.3c6.8 6.3 17.8 5.7 25-1.3 3.4-3.2 4-3.4 6.3-2.4 1.4.6 2.5 1.7 2.5 2.3 0 1.7-6.9 9.9-8.3 9.9-.7 0-2.9 1.1-4.9 2.5-5.7 3.9-13.5 3.6-20.2-.9-6.2-4.1-9.1-7.2-10.5-10.9-1.5-4-1.5-55.3 0-59.8 1.5-4.3 4.4-7.6 8.9-10 5.3-2.8 20.1-2.7 25.5.2z"/></svg>