<svg id="+" fill="#262626" xmlns="http://www.w3.org/2000/svg" viewBox="0 0 72 72"><path d="M31 0h10c.7.4 1.3.9 2.1 1.1 15 3.5 24.3 12.8 27.8 27.8.2.7.7 1.4 1.1 2.1v10c-.4.7-.9 1.3-1.1 2.1-3.5 15-12.8 24.3-27.8 27.8-.7.2-1.4.7-2.1 1.1H31c-.7-.4-1.3-.9-2.1-1.1C13.9 67.4 4.6 58.1 1 43.1c-.1-.7-.6-1.4-1-2.1V31c.4-.7.9-1.4 1.1-2.1C4.7 13.9 13.9 4.6 29 1.1c.7-.2 1.3-.7 2-1.1zm5.1 69.1c17.9-.1 33.1-15.3 33-33.2C69 18 53.8 2.8 35.9 2.9 18 3 2.8 18.2 2.9 36.1c0 17.9 15.3 33.1 33.2 33z"/><path d="M31.8 55.2V40.1h-15v-8.2h15.1V16.7h8.2v15.1h15.2V40H40.2v15.2h-8.4z"/></svg>