<svg id="-" fill="#ff0036" xmlns="http://www.w3.org/2000/svg" viewBox="0 0 72 72"><path d="M31 0h10c.5.3 1 .8 1.6.9 15.5 3.5 25 12.9 28.4 28.4.1.6.6 1.1.9 1.6v10c-.3.5-.8 1.1-.9 1.6-3.5 15.5-12.9 25-28.4 28.4-.6.1-1.1.6-1.6.9H31c-.7-.4-1.4-.9-2.1-1C13.8 67.4 4.6 58.1 1 43.1c-.2-.8-.7-1.4-1-2.1V31c.3-.5.8-1.1.9-1.7C4.4 13.9 13.8 4.3 29.3.9 30 .8 30.5.3 31 0zM3 35.9C2.9 53.8 18.1 69.1 36 69c17.7 0 33-14.8 33-32.7C68.9 17.5 54.6 3.4 36.2 3 18.4 2.6 3 18 3 35.9z"/><path d="M36.3 31.9c5.3 0 10.7-.1 16 0 3.2.1 3.3.2 3.3 4.1 0 3.9 0 4.1-3.2 4.1-11 .1-22 0-33 .1-3 0-3.1-1.7-3-3.9 0-3.9.1-4.3 3-4.4 5.6-.1 11.3 0 16.9 0z"/></svg>