<svg id="fire" xmlns="http://www.w3.org/2000/svg" viewBox="0 0 124.7 156.5"><path d="M63.2 0c1 1.3 1.8 3.2 3.1 4C77 10.2 87 17.2 93.8 27.9c8.1 12.7 9.7 26.6 5.4 40.7-2.6 8.4-9.7 14.1-16.3 19.7-5.2 4.4-10.4 8.7-15.2 13.5-7.7 7.7-5.7 16.6-2.6 25.6.4 1.2.5 2.6.8 3.9-1.6 0-3.5.6-4.7 0-4.8-2.7-9.5-5.6-13.9-8.7-6.5-4.7-12.3-10.1-16.7-17C20.6 89.8 18 63.5 37.9 48c6.8-5.3 13.3-11 19.4-17.1 4.5-4.5 5.9-10.4 4.2-16.7-1.3-4.7-2.9-9.4-4.3-14.2h6zM.2 146h124c0 3.3 1.3 7.9-.4 9.6-1.6 1.7-6.3.4-9.6.4-36.7 0-73.4-.1-110.1.1-3.5 0-4.5-.8-4-4.1.3-2 .1-4 .1-6z"/></svg>