<svg id="g+" xmlns="http://www.w3.org/2000/svg" viewBox="0 0 512 512"><path d="M270.829 267.947c-10.069-7.339-25.28-18.411-25.472-22.656 0-6.037 13.781-19.712 24.853-30.677 25.515-25.323 60.48-59.989 60.48-107.947.573-35.74-19.044-68.751-50.709-85.333h50.709c5.891 0 10.667-4.776 10.667-10.667S336.581 0 330.69 0H192.023a154.95 154.95 0 00-27.541 2.56C206.957-5.909 251.565 32 264.557 88.597c13.291 57.323-10.88 111.936-53.867 121.963a60.984 60.984 0 01-13.675 1.557c-38.635 0-76.437-36.267-88.299-87.467C95.639 67.904 119.383 13.888 161.453 3.179 99.519 12.344 53.579 65.392 53.357 128c0 73.408 68.672 99.819 118.101 105.451a68.437 68.437 0 001.024 65.941C107.522 303.979 10.69 332.075 10.69 416a81.702 81.702 0 0023.851 60.501C67.757 509.248 126.061 512 156.503 512h14.187c1.813 0 181.333-3.179 181.333-117.333 0-67.563-48.853-103.147-81.194-126.72zm-78.806 222.72c-54.123 0-117.333-22.336-117.333-85.333s73.088-106.667 138.667-106.667a10.67 10.67 0 015.44 1.493c9.28 5.504 90.56 55.211 90.56 105.173 0 50.987-60.672 85.334-117.334 85.334zm234.667-192c-5.891 0-10.667-4.776-10.667-10.667V160c0-5.891 4.776-10.667 10.667-10.667s10.667 4.776 10.667 10.667v128c0 5.891-4.776 10.667-10.667 10.667z"/><path d="M490.69 234.667h-128c-5.891 0-10.667-4.776-10.667-10.667s4.776-10.667 10.667-10.667h128c5.891 0 10.667 4.776 10.667 10.667s-4.776 10.667-10.667 10.667z"/></svg>