<svg id="laptop" xmlns="http://www.w3.org/2000/svg" viewBox="0 0 140.1 96.1"><path d="M114.1 0c.2.8.2 1.9.8 2.3 6.8 4.7 5.7 11.8 5.6 18.5 0 13-.3 26 .2 38.9.5 12.3-5.5 16.4-15.9 16.3-23.6-.3-47.3-.1-70.9-.1-10.2 0-14.1-3.6-14.2-13.7-.2-15.6-.1-31.3-.1-46.9 0-4.7.3-9.4 5.1-12.3.8-.5 1-2 1.4-3.1 29.4.1 58.7.1 88 .1zM69.9 67.8c11.7 0 23.3.1 35 0 6.3-.1 7.6-1.4 7.6-7.8.1-14.3-.1-28.7.1-43 .1-5-2.1-7.7-7-7.7-23.7-.1-47.3-.1-71 0-4.9 0-7 2.7-6.9 7.7.2 14.3 0 28.7.1 43 0 6.3 1.3 7.7 7.6 7.7 11.5.2 23 .1 34.5.1zM.1 82h33.4c32.9-.2 65.8-.4 98.7-.5 2.7 0 5.3.3 8 .5v14h-14c-40.8 0-81.7 0-122.5.1-3 0-3.9-.6-3.6-3.6.3-3.5 0-7 0-10.5z"/></svg>