<svg id="ok" xmlns="http://www.w3.org/2000/svg" viewBox="0 0 132 132"><path d="M0 71V57c1.8-1.5 3.8-2.8 5.4-4.4C19 39.1 32.6 25.5 46 11.8 49.6 8.1 52.7 4 56 0h20c.5 1.3.6 2.9 1.5 3.9 5.6 5.7 11.3 11.2 17 16.7 2.9 2.8 4 5.4.5 8.8-8.6 8.4-17 16.9-25.3 25.4-3.5 3.6-6.3 2.6-9.2-.6-2.9-3.2-5.9-6.3-9-9.3-6.8-6.7-14-7.6-20.9-.6-3.1 3.2-6.5 6.3-9.3 9.7-4.3 5.1-4.1 12.6.5 17.3 11 11.1 22 22.2 33.1 33.1 7.1 7 14.3 6.8 21.3-.2 14.5-14.4 29.1-28.8 43.4-43.5 3.9-4 7.3-6.5 12.5-2.7v12c-1.9 1.7-3.8 3.4-5.6 5.2-16.9 16.8-33.7 33.6-50.7 50.3-2.4 2.4-5.2 4.4-7.8 6.5h-5c-2.2-2-4.6-4-6.7-6.2-17.6-17.7-35.2-35.5-52.9-53.2-.8-.8-2.2-1.1-3.4-1.6z"/><path d="M132 38c-1.6.8-3.4 1.4-4.6 2.6C108.5 59.3 89.8 78.2 71 97c-4.4 4.4-7.3 4.3-11.7-.1-9.7-9.6-19.3-19.2-29-28.8-4.2-4.1-4.2-7.5-.2-11.5 1.7-1.6 3.3-3.2 5-4.8 4.6-4.3 5.8-4.5 10.3-.2 4.9 4.7 9.7 9.5 14.4 14.4 4 4.2 6.1 4.4 10.3.2C84 52.4 97.8 38.5 111.7 24.6c5-5 6.2-4.9 11.5-.1 2.7 2.4 5.9 4.4 8.8 6.5v7z"/></svg>