<svg id="pen" xmlns="http://www.w3.org/2000/svg" viewBox="0 0 69 72"><path d="M0 51c1.2-.6 2.7-1 3.6-2 9.7-9.8 19.3-19.6 29-29.5 1.5-1.5 3.1-3 5.1-5 5.9 4.9 10.8 10.5 15.9 15.8.8.8 1 2.3 1.6 3.6-4.4 4.6-8.4 8.9-12.6 13.2-6.6 7-13.3 13.9-20 20.9-1.1 1.1-1.8 2.7-2.6 4H0V51zm21.1 9.9c-3.8-3.4-7.2-6.5-10.9-10-1.4 1.2-2.9 2.5-4.4 3.8.2 1.7.3 3.3.5 4.7 2 .6 3.6 1.1 5 1.5.4 1.7.8 3.1 1.2 4.7h4.7c1.2-1.4 2.2-2.6 3.9-4.7zm17.2-36.3l-1.1-1.1c-2.9 2.9-5.8 5.7-8.7 8.7-6.8 6.9-6.8 6.9-6.7 10 5.8-6.1 12-11 16.5-17.6zM69 21c-1.9 1.5-3.7 3.1-5.6 4.6-1.4 1.1-2.7 2.1-4.3 3.3-6-6.2-11.6-12-17.2-17.8 1.9-3.9 4.6-6.2 7.6-8.3C50.5 2 51.2.9 52 0h1c.2.6.3 1.5.8 1.7 5.2 2.8 8.6 7.4 12.5 11.5.7.8 1.8 1.2 2.7 1.8v6z"/></svg>