<svg width="0" height="0" class="hidden"><symbol xmlns="http://www.w3.org/2000/svg" viewBox="0 0 511.626 511.627" id="heart"><path d="M475.366 71.951c-24.175-23.606-57.575-35.404-100.215-35.404-11.8 0-23.843 2.046-36.117 6.136-12.279 4.093-23.702 9.615-34.256 16.562-10.568 6.945-19.65 13.467-27.269 19.556a263.828 263.828 0 00-21.696 19.414 264.184 264.184 0 00-21.698-19.414c-7.616-6.089-16.702-12.607-27.268-19.556-10.564-6.95-21.985-12.468-34.261-16.562-12.275-4.089-24.316-6.136-36.116-6.136-42.637 0-76.039 11.801-100.211 35.404C12.087 95.552 0 128.288 0 170.162c0 12.753 2.24 25.889 6.711 39.398 4.471 13.514 9.566 25.031 15.275 34.546 5.708 9.514 12.181 18.796 19.414 27.837 7.233 9.042 12.519 15.27 15.846 18.699 3.33 3.422 5.948 5.899 7.851 7.419L243.25 469.937c3.427 3.429 7.614 5.144 12.562 5.144s9.138-1.715 12.563-5.137l177.87-171.307c43.588-43.583 65.38-86.41 65.38-128.475.001-41.874-12.088-74.61-36.259-98.211z"/></symbol><symbol xmlns="http://www.w3.org/2000/svg" viewBox="0 0 184.751 184.751" id="hexagon"><path d="M0 92.375l46.188-80h92.378l46.185 80-46.185 80H46.188L0 92.375z"/></symbol><symbol fill="#262626" xmlns="http://www.w3.org/2000/svg" viewBox="0 0 184.751 184.751" id="hexagon_black"><path d="M0 92.375l46.188-80h92.378l46.185 80-46.185 80H46.188L0 92.375z"/></symbol><symbol fill="#ff0036" xmlns="http://www.w3.org/2000/svg" viewBox="0 0 184.751 184.751" id="hexagon_red"><path d="M0 92.375l46.188-80h92.378l46.185 80-46.185 80H46.188L0 92.375z"/></symbol><symbol xmlns="http://www.w3.org/2000/svg" viewBox="0 0 299.215 299.215" id="html5"><path d="M22.347 0c-2.75 0-4.799 2.241-4.555 4.98l23.184 260.047c.244 2.739 2.611 5.582 5.262 6.318l98.381 27.316c2.65.736 6.986.736 9.637.002l98.68-27.361c2.65-.735 5.02-3.578 5.264-6.316L281.422 4.98c.246-2.739-1.805-4.98-4.555-4.98H22.347zm209.702 59.641l-.842 9.423-.611 6.823c-.246 2.738-.596 6.654-.781 8.701-.184 2.048-.359 3.723-.391 3.723H107.759c-2.75 0-4.799 2.241-4.555 4.98l2.143 23.955c.244 2.738 2.695 4.98 5.445 4.98h111.212c2.449 0 4.273 1.999 4.051 4.442a5396.99 5396.99 0 00-.848 9.423l-6.891 77.228c-.246 2.739-.557 6.238-.691 7.776-.137 1.537-2.416 3.396-5.066 4.131l-58.133 16.119c-2.65.734-4.852 1.342-4.893 1.351-.041.009-2.242-.586-4.893-1.321l-58.195-16.148c-2.65-.735-5.018-3.578-5.262-6.317l-3.746-42.045c-.244-2.739 1.807-4.98 4.557-4.98h23.231c2.75 0 5.199 2.241 5.445 4.98l1.469 16.459c.244 2.739 2.615 5.566 5.271 6.283l27.221 7.351c2.654.717 4.836 1.304 4.848 1.304s2.193-.588 4.848-1.305l27.27-7.369c2.654-.717 5.027-3.545 5.273-6.283l2.957-32.976c.246-2.739-1.803-4.98-4.553-4.98H80.511c-2.75 0-5.199-2.242-5.443-4.98l-7.256-81.306-.842-9.423c-.217-2.443 1.854-4.442 4.604-4.442h155.872c2.749 0 4.821 1.999 4.603 4.443z"/></symbol><symbol xmlns="http://www.w3.org/2000/svg" viewBox="0 0 140.1 96.1" id="laptop"><path d="M114.1 0c.2.8.2 1.9.8 2.3 6.8 4.7 5.7 11.8 5.6 18.5 0 13-.3 26 .2 38.9.5 12.3-5.5 16.4-15.9 16.3-23.6-.3-47.3-.1-70.9-.1-10.2 0-14.1-3.6-14.2-13.7-.2-15.6-.1-31.3-.1-46.9 0-4.7.3-9.4 5.1-12.3.8-.5 1-2 1.4-3.1 29.4.1 58.7.1 88 .1zM69.9 67.8c11.7 0 23.3.1 35 0 6.3-.1 7.6-1.4 7.6-7.8.1-14.3-.1-28.7.1-43 .1-5-2.1-7.7-7-7.7-23.7-.1-47.3-.1-71 0-4.9 0-7 2.7-6.9 7.7.2 14.3 0 28.7.1 43 0 6.3 1.3 7.7 7.6 7.7 11.5.2 23 .1 34.5.1zM.1 82h33.4c32.9-.2 65.8-.4 98.7-.5 2.7 0 5.3.3 8 .5v14h-14c-40.8 0-81.7 0-122.5.1-3 0-3.9-.6-3.6-3.6.3-3.5 0-7 0-10.5z"/></symbol><symbol xmlns="http://www.w3.org/2000/svg" viewBox="0 0 93 69" id="lessmore"><path d="M59 0c-4.1 15.4-8.1 30.7-12.3 46-2.1 7.7-4.5 15.3-6.7 23h-6c4.1-15.2 8.1-30.4 12.3-45.5C48.4 15.6 50.8 7.8 53 0h6zM0 32c6.7-6 13.3-12.1 20-18.1 1.7-1.5 3.4-3 5.4-4.8 1.7 1.6 2.9 2.8 5.4 5.1-7.6 6.7-14.8 13-23.1 20.4 8.4 7.5 15.5 13.9 24 21.5-2.4 2.5-3.7 3.7-5.1 5.2C16.8 52.3 8.4 44.6 0 37v-5zm93 5c-8.4 7.6-16.8 15.3-25.6 23.3-1.4-1.3-2.7-2.4-5.7-5 7.9-6.6 15.4-12.8 24.4-20.3-9.1-7.9-16.3-14.2-24-20.8 2.5-2.4 3.7-3.5 5.1-4.9C76.1 17.1 84.6 24.5 93 32v5z"/></symbol><symbol xmlns="http://www.w3.org/2000/svg" viewBox="0 0 132 132" id="ok"><path d="M0 71V57c1.8-1.5 3.8-2.8 5.4-4.4C19 39.1 32.6 25.5 46 11.8 49.6 8.1 52.7 4 56 0h20c.5 1.3.6 2.9 1.5 3.9 5.6 5.7 11.3 11.2 17 16.7 2.9 2.8 4 5.4.5 8.8-8.6 8.4-17 16.9-25.3 25.4-3.5 3.6-6.3 2.6-9.2-.6-2.9-3.2-5.9-6.3-9-9.3-6.8-6.7-14-7.6-20.9-.6-3.1 3.2-6.5 6.3-9.3 9.7-4.3 5.1-4.1 12.6.5 17.3 11 11.1 22 22.2 33.1 33.1 7.1 7 14.3 6.8 21.3-.2 14.5-14.4 29.1-28.8 43.4-43.5 3.9-4 7.3-6.5 12.5-2.7v12c-1.9 1.7-3.8 3.4-5.6 5.2-16.9 16.8-33.7 33.6-50.7 50.3-2.4 2.4-5.2 4.4-7.8 6.5h-5c-2.2-2-4.6-4-6.7-6.2-17.6-17.7-35.2-35.5-52.9-53.2-.8-.8-2.2-1.1-3.4-1.6z"/><path d="M132 38c-1.6.8-3.4 1.4-4.6 2.6C108.5 59.3 89.8 78.2 71 97c-4.4 4.4-7.3 4.3-11.7-.1-9.7-9.6-19.3-19.2-29-28.8-4.2-4.1-4.2-7.5-.2-11.5 1.7-1.6 3.3-3.2 5-4.8 4.6-4.3 5.8-4.5 10.3-.2 4.9 4.7 9.7 9.5 14.4 14.4 4 4.2 6.1 4.4 10.3.2C84 52.4 97.8 38.5 111.7 24.6c5-5 6.2-4.9 11.5-.1 2.7 2.4 5.9 4.4 8.8 6.5v7z"/></symbol><symbol xmlns="http://www.w3.org/2000/svg" viewBox="0 0 69 72" id="pen"><path d="M0 51c1.2-.6 2.7-1 3.6-2 9.7-9.8 19.3-19.6 29-29.5 1.5-1.5 3.1-3 5.1-5 5.9 4.9 10.8 10.5 15.9 15.8.8.8 1 2.3 1.6 3.6-4.4 4.6-8.4 8.9-12.6 13.2-6.6 7-13.3 13.9-20 20.9-1.1 1.1-1.8 2.7-2.6 4H0V51zm21.1 9.9c-3.8-3.4-7.2-6.5-10.9-10-1.4 1.2-2.9 2.5-4.4 3.8.2 1.7.3 3.3.5 4.7 2 .6 3.6 1.1 5 1.5.4 1.7.8 3.1 1.2 4.7h4.7c1.2-1.4 2.2-2.6 3.9-4.7zm17.2-36.3l-1.1-1.1c-2.9 2.9-5.8 5.7-8.7 8.7-6.8 6.9-6.8 6.9-6.7 10 5.8-6.1 12-11 16.5-17.6zM69 21c-1.9 1.5-3.7 3.1-5.6 4.6-1.4 1.1-2.7 2.1-4.3 3.3-6-6.2-11.6-12-17.2-17.8 1.9-3.9 4.6-6.2 7.6-8.3C50.5 2 51.2.9 52 0h1c.2.6.3 1.5.8 1.7 5.2 2.8 8.6 7.4 12.5 11.5.7.8 1.8 1.2 2.7 1.8v6z"/></symbol><symbol xmlns="http://www.w3.org/2000/svg" viewBox="0 0 511.977 511.977" id="pinterest"><path d="M262.948 0C122.628 0 48.004 89.92 48.004 187.968c0 45.472 25.408 102.176 66.08 120.16 6.176 2.784 9.536 1.6 10.912-4.128 1.216-4.352 6.56-25.312 9.152-35.2.8-3.168.384-5.92-2.176-8.896-13.504-15.616-24.224-44.064-24.224-70.752 0-68.384 54.368-134.784 146.88-134.784 80 0 135.968 51.968 135.968 126.304 0 84-44.448 142.112-102.208 142.112-31.968 0-55.776-25.088-48.224-56.128 9.12-36.96 27.008-76.704 27.008-103.36 0-23.904-13.504-43.68-41.088-43.68-32.544 0-58.944 32.224-58.944 75.488 0 27.488 9.728 46.048 9.728 46.048S144.676 371.2 138.692 395.488c-10.112 41.12 1.376 107.712 2.368 113.44.608 3.168 4.16 4.16 6.144 1.568 3.168-4.16 42.08-59.68 52.992-99.808 3.968-14.624 20.256-73.92 20.256-73.92 10.72 19.36 41.664 35.584 74.624 35.584 98.048 0 168.896-86.176 168.896-193.12C463.62 76.704 375.876 0 262.948 0z"/></symbol><symbol xmlns="http://www.w3.org/2000/svg" viewBox="0 0 511.096 511.096" id="speech"><path d="M74.414 480.548H38.2l25.607-25.607c13.807-13.807 22.429-31.765 24.747-51.246C29.427 364.893 0 308.681 0 249.751 0 141.032 99.923 30.548 256.414 30.548c165.785 0 254.682 101.666 254.682 209.678 0 108.724-89.836 210.322-254.682 210.322-28.877 0-59.01-3.855-85.913-10.928-25.467 26.121-59.973 40.928-96.087 40.928z"/></symbol><symbol xmlns="http://www.w3.org/2000/svg" viewBox="0 0 104 124" id="tablet"><path d="M0 117V7c3.9-.7 5.7-3.2 6-7h92c.3 3.8 2.1 6.3 6 7v110c-2 2.3-4 4.7-6 7H6c-2-2.3-4-4.7-6-7zm11.2-60.6v38.5c0 6.7 1.6 8.3 8.3 8.3 21.7.1 43.3.1 65 0 6.7 0 8.3-1.6 8.3-8.3.1-25.7 0-51.3 0-77 0-6.3-1.3-7.8-7.6-7.8-22.2-.1-44.3-.1-66.5 0-6.3 0-7.6 1.5-7.6 7.8 0 12.9.1 25.7.1 38.5zM50.1 120c5.7 0 7.7-2.8 7.6-6.1 0-3-1.7-5.8-5.6-5.8-4.1-.1-6.1 2.8-5.8 6 .2 2.3 2.8 4.4 3.8 5.9z"/></symbol><symbol xmlns="http://www.w3.org/2000/svg" viewBox="0 0 512 512" id="twitter"><path d="M512 97.248c-19.04 8.352-39.328 13.888-60.48 16.576 21.76-12.992 38.368-33.408 46.176-58.016-20.288 12.096-42.688 20.64-66.56 25.408C411.872 60.704 384.416 48 354.464 48c-58.112 0-104.896 47.168-104.896 104.992 0 8.32.704 16.32 2.432 23.936-87.264-4.256-164.48-46.08-216.352-109.792-9.056 15.712-14.368 33.696-14.368 53.056 0 36.352 18.72 68.576 46.624 87.232-16.864-.32-33.408-5.216-47.424-12.928v1.152c0 51.008 36.384 93.376 84.096 103.136-8.544 2.336-17.856 3.456-27.52 3.456-6.72 0-13.504-.384-19.872-1.792 13.6 41.568 52.192 72.128 98.08 73.12-35.712 27.936-81.056 44.768-130.144 44.768-8.608 0-16.864-.384-25.12-1.44C46.496 446.88 101.6 464 161.024 464c193.152 0 298.752-160 298.752-298.688 0-4.64-.16-9.12-.384-13.568 20.832-14.784 38.336-33.248 52.608-54.496z"/></symbol><symbol xmlns="http://www.w3.org/2000/svg" viewBox="-42 0 512 512.002" id="user"><path d="M210.352 246.633c33.882 0 63.222-12.153 87.195-36.13 23.973-23.972 36.125-53.304 36.125-87.19 0-33.876-12.152-63.211-36.129-87.192C273.566 12.152 244.23 0 210.352 0c-33.887 0-63.22 12.152-87.192 36.125s-36.129 53.309-36.129 87.188c0 33.886 12.156 63.222 36.133 87.195 23.977 23.969 53.313 36.125 87.188 36.125zm215.777 147.07c-.692-9.976-2.09-20.86-4.149-32.351-2.078-11.579-4.753-22.524-7.957-32.528-3.308-10.34-7.808-20.55-13.37-30.336-5.774-10.156-12.555-19-20.165-26.277-7.957-7.613-17.699-13.734-28.965-18.2-11.226-4.44-23.668-6.69-36.976-6.69-5.227 0-10.281 2.144-20.043 8.5a2711.03 2711.03 0 01-20.879 13.46c-6.707 4.274-15.793 8.278-27.016 11.903-10.949 3.543-22.066 5.34-33.039 5.34-10.972 0-22.086-1.797-33.047-5.34-11.21-3.622-20.296-7.625-26.996-11.899a2853.13 2853.13 0 01-20.898-13.469c-9.75-6.355-14.809-8.5-20.035-8.5-13.313 0-25.75 2.254-36.973 6.7-11.258 4.457-21.004 10.578-28.969 18.199-7.605 7.281-14.39 16.12-20.156 26.273-5.558 9.785-10.058 19.992-13.371 30.34-3.2 10.004-5.875 20.945-7.953 32.524-2.059 11.476-3.457 22.363-4.149 32.363A438.821 438.821 0 000 423.949c0 26.727 8.496 48.363 25.25 64.32 16.547 15.747 38.441 23.735 65.066 23.735h246.532c26.625 0 48.511-7.984 65.062-23.734 16.758-15.946 25.254-37.586 25.254-64.325-.004-10.316-.351-20.492-1.035-30.242zm0 0"/></symbol><symbol xmlns="http://www.w3.org/2000/svg" viewBox="0 0 577.029 577.029" id="view"><path d="M288.514 148.629c73.746 0 136.162 33.616 175.539 61.821 46.652 33.415 70.66 65.737 76.885 78.065-6.232 12.327-30.232 44.649-76.885 78.065-39.377 28.204-101.793 61.82-175.539 61.82-73.746 0-136.161-33.616-175.539-61.82-46.661-33.416-70.66-65.738-76.894-78.065 6.234-12.328 30.233-44.65 76.885-78.065 39.387-28.205 101.802-61.821 175.548-61.821m0-34.972C129.176 113.657 0 253.543 0 288.515s129.176 174.857 288.514 174.857c159.339 0 288.515-139.886 288.515-174.857S447.854 113.657 288.514 113.657zm0 69.944c-57.939 0-104.914 46.975-104.914 104.914 0 57.938 46.975 104.914 104.914 104.914s104.914-46.976 104.914-104.914c0-57.939-46.975-104.914-104.914-104.914zm-28.248 104.914c-24.515 0-44.388-19.873-44.388-44.388 0-24.515 19.873-44.387 44.388-44.387 24.515 0 44.388 19.873 44.388 44.387 0 24.515-19.873 44.388-44.388 44.388z"/></symbol><symbol xmlns="http://www.w3.org/2000/svg" viewBox="0 0 24 24" id="wordpress"><path d="M12 0C5.385 0 0 5.381 0 12c0 6.615 5.385 12 12 12s12-5.385 12-12c0-6.62-5.385-12-12-12zM1.21 11.999c0-1.563.333-3.048.934-4.389l5.148 14.1a10.794 10.794 0 01-6.082-9.711zM12 22.79c-1.06 0-2.081-.155-3.048-.441l3.237-9.406 3.315 9.087c.024.054.049.101.077.15-1.118.392-2.323.61-3.581.61zm1.485-15.845v-.001a22.684 22.684 0 001.233-.101c.581-.068.513-.924-.068-.891 0 0-1.747.135-2.874.135-1.06 0-2.841-.135-2.841-.135-.58-.034-.647.857-.067.891 0 0 .551.068 1.132.101l1.679 4.606-2.361 7.079L5.39 6.944c.649-.034 1.234-.101 1.234-.101.581-.068.513-.924-.068-.891 0 0-1.747.135-2.874.135-.203 0-.441-.005-.697-.014A10.781 10.781 0 0112 1.21c2.807 0 5.366 1.075 7.287 2.83a1.333 1.333 0 00-.14-.009c-1.06 0-1.81.924-1.81 1.916 0 .89.513 1.64 1.06 2.531.411.716.891 1.64.891 2.976 0 .924-.353 1.993-.823 3.489l-1.075 3.595zm7.985-.122a10.746 10.746 0 011.321 5.178c0 3.982-2.158 7.456-5.366 9.324l-.001-.001 3.295-9.528c.614-1.539.823-2.767.823-3.866a7.99 7.99 0 00-.072-1.107z"/></symbol><symbol fill="#df0030" xmlns="http://www.w3.org/2000/svg" viewBox="0 0 72 72" id="-"><path d="M31 0h10c.5.3 1 .8 1.6.9 15.5 3.5 25 12.9 28.4 28.4.1.6.6 1.1.9 1.6v10c-.3.5-.8 1.1-.9 1.6-3.5 15.5-12.9 25-28.4 28.4-.6.1-1.1.6-1.6.9H31c-.7-.4-1.4-.9-2.1-1C13.8 67.4 4.6 58.1 1 43.1c-.2-.8-.7-1.4-1-2.1V31c.3-.5.8-1.1.9-1.7C4.4 13.9 13.8 4.3 29.3.9 30 .8 30.5.3 31 0zM3 35.9C2.9 53.8 18.1 69.1 36 69c17.7 0 33-14.8 33-32.7C68.9 17.5 54.6 3.4 36.2 3 18.4 2.6 3 18 3 35.9z"/><path d="M36.3 31.9c5.3 0 10.7-.1 16 0 3.2.1 3.3.2 3.3 4.1 0 3.9 0 4.1-3.2 4.1-11 .1-22 0-33 .1-3 0-3.1-1.7-3-3.9 0-3.9.1-4.3 3-4.4 5.6-.1 11.3 0 16.9 0z"/></symbol><symbol fill="#262626" xmlns="http://www.w3.org/2000/svg" viewBox="0 0 72 72" id="+"><path d="M31 0h10c.7.4 1.3.9 2.1 1.1 15 3.5 24.3 12.8 27.8 27.8.2.7.7 1.4 1.1 2.1v10c-.4.7-.9 1.3-1.1 2.1-3.5 15-12.8 24.3-27.8 27.8-.7.2-1.4.7-2.1 1.1H31c-.7-.4-1.3-.9-2.1-1.1C13.9 67.4 4.6 58.1 1 43.1c-.1-.7-.6-1.4-1-2.1V31c.4-.7.9-1.4 1.1-2.1C4.7 13.9 13.9 4.6 29 1.1c.7-.2 1.3-.7 2-1.1zm5.1 69.1c17.9-.1 33.1-15.3 33-33.2C69 18 53.8 2.8 35.9 2.9 18 3 2.8 18.2 2.9 36.1c0 17.9 15.3 33.1 33.2 33z"/><path d="M31.8 55.2V40.1h-15v-8.2h15.1V16.7h8.2v15.1h15.2V40H40.2v15.2h-8.4z"/></symbol><symbol xmlns="http://www.w3.org/2000/svg" viewBox="0 0 512.001 512.001" id="cancel"><path d="M284.286 256.002L506.143 34.144c7.811-7.811 7.811-20.475 0-28.285-7.811-7.81-20.475-7.811-28.285 0L256 227.717 34.143 5.859c-7.811-7.811-20.475-7.811-28.285 0-7.81 7.811-7.811 20.475 0 28.285l221.857 221.857L5.858 477.859c-7.811 7.811-7.811 20.475 0 28.285a19.938 19.938 0 0014.143 5.857 19.94 19.94 0 0014.143-5.857L256 284.287l221.857 221.857c3.905 3.905 9.024 5.857 14.143 5.857s10.237-1.952 14.143-5.857c7.811-7.811 7.811-20.475 0-28.285L284.286 256.002z"/></symbol><symbol xmlns="http://www.w3.org/2000/svg" viewBox="0 0 405.272 405.272" id="check"><path d="M393.401 124.425L179.603 338.208c-15.832 15.835-41.514 15.835-57.361 0L11.878 227.836c-15.838-15.835-15.838-41.52 0-57.358 15.841-15.841 41.521-15.841 57.355-.006l81.698 81.699L336.037 67.064c15.841-15.841 41.523-15.829 57.358 0 15.835 15.838 15.835 41.514.006 57.361z"/></symbol><symbol xmlns="http://www.w3.org/2000/svg" viewBox="0 0 300.2 222.4" id="cloud"><path d="M.1 170.1c0-55.3 0-110.7-.1-166C0 .7.7 0 4.1 0c97.3.1 194.7.1 292 0 3.4 0 4.1.7 4.1 4.1-.1 55.3-.1 110.7-.1 166-1.7 0-3.4.1-5-.1-5.8-.9-9.8 1.5-13.7 5.8-13.8 15.1-28.1 29.8-42.2 44.6-.8.8-1.9 1.3-2.9 2 .3-1.1.4-2.2.8-3.3 6.1-14.9 12.1-29.9 18.4-44.7 1.7-4.1.7-4.5-3.2-4.5-22.5.1-45 .1-67.4.1-61.6 0-123.2.1-184.8.1z"/></symbol><symbol xmlns="http://www.w3.org/2000/svg" viewBox="0 0 444.819 444.819" id="down"><path d="M434.252 114.203l-21.409-21.416c-7.419-7.04-16.084-10.561-25.975-10.561-10.095 0-18.657 3.521-25.7 10.561L222.41 231.549 83.653 92.791c-7.042-7.04-15.606-10.561-25.697-10.561-9.896 0-18.559 3.521-25.979 10.561l-21.128 21.416C3.615 121.436 0 130.099 0 140.188c0 10.277 3.619 18.842 10.848 25.693l185.864 185.865c6.855 7.23 15.416 10.848 25.697 10.848 10.088 0 18.75-3.617 25.977-10.848l185.865-185.865c7.043-7.044 10.567-15.608 10.567-25.693.001-9.901-3.523-18.559-10.566-25.985z"/></symbol><symbol xmlns="http://www.w3.org/2000/svg" viewBox="0 0 24 24" id="facebook"><path d="M15.997 3.985h2.191V.169C17.81.117 16.51 0 14.996 0c-3.159 0-5.323 1.987-5.323 5.639V9H6.187v4.266h3.486V24h4.274V13.267h3.345l.531-4.266h-3.877V6.062c.001-1.233.333-2.077 2.051-2.077z"/></symbol><symbol xmlns="http://www.w3.org/2000/svg" viewBox="0 0 124.7 156.5" id="fire"><path d="M63.2 0c1 1.3 1.8 3.2 3.1 4C77 10.2 87 17.2 93.8 27.9c8.1 12.7 9.7 26.6 5.4 40.7-2.6 8.4-9.7 14.1-16.3 19.7-5.2 4.4-10.4 8.7-15.2 13.5-7.7 7.7-5.7 16.6-2.6 25.6.4 1.2.5 2.6.8 3.9-1.6 0-3.5.6-4.7 0-4.8-2.7-9.5-5.6-13.9-8.7-6.5-4.7-12.3-10.1-16.7-17C20.6 89.8 18 63.5 37.9 48c6.8-5.3 13.3-11 19.4-17.1 4.5-4.5 5.9-10.4 4.2-16.7-1.3-4.7-2.9-9.4-4.3-14.2h6zM.2 146h124c0 3.3 1.3 7.9-.4 9.6-1.6 1.7-6.3.4-9.6.4-36.7 0-73.4-.1-110.1.1-3.5 0-4.5-.8-4-4.1.3-2 .1-4 .1-6z"/></symbol><symbol xmlns="http://www.w3.org/2000/svg" viewBox="0 0 512 512" id="g+"><path d="M270.829 267.947c-10.069-7.339-25.28-18.411-25.472-22.656 0-6.037 13.781-19.712 24.853-30.677 25.515-25.323 60.48-59.989 60.48-107.947.573-35.74-19.044-68.751-50.709-85.333h50.709c5.891 0 10.667-4.776 10.667-10.667S336.581 0 330.69 0H192.023a154.95 154.95 0 00-27.541 2.56C206.957-5.909 251.565 32 264.557 88.597c13.291 57.323-10.88 111.936-53.867 121.963a60.984 60.984 0 01-13.675 1.557c-38.635 0-76.437-36.267-88.299-87.467C95.639 67.904 119.383 13.888 161.453 3.179 99.519 12.344 53.579 65.392 53.357 128c0 73.408 68.672 99.819 118.101 105.451a68.437 68.437 0 001.024 65.941C107.522 303.979 10.69 332.075 10.69 416a81.702 81.702 0 0023.851 60.501C67.757 509.248 126.061 512 156.503 512h14.187c1.813 0 181.333-3.179 181.333-117.333 0-67.563-48.853-103.147-81.194-126.72zm-78.806 222.72c-54.123 0-117.333-22.336-117.333-85.333s73.088-106.667 138.667-106.667a10.67 10.67 0 015.44 1.493c9.28 5.504 90.56 55.211 90.56 105.173 0 50.987-60.672 85.334-117.334 85.334zm234.667-192c-5.891 0-10.667-4.776-10.667-10.667V160c0-5.891 4.776-10.667 10.667-10.667s10.667 4.776 10.667 10.667v128c0 5.891-4.776 10.667-10.667 10.667z"/><path d="M490.69 234.667h-128c-5.891 0-10.667-4.776-10.667-10.667s4.776-10.667 10.667-10.667h128c5.891 0 10.667 4.776 10.667 10.667s-4.776 10.667-10.667 10.667z"/></symbol><symbol xmlns="http://www.w3.org/2000/svg" viewBox="0 0 299.021 299.021" id="go-back-arrow"><path d="M292.866 254.432a6.156 6.156 0 01-5.5-3.399c-.354-.684-28.541-52.949-146.169-54.727v51.977a6.146 6.146 0 01-3.432 5.513 6.157 6.157 0 01-6.461-.63L2.417 154.392A6.154 6.154 0 010 149.516c0-1.919.898-3.72 2.417-4.888l128.893-98.77a6.164 6.164 0 016.461-.639 6.14 6.14 0 013.432 5.509v54.776c3.111-.198 7.164-.37 11.947-.37 43.861 0 145.871 13.952 145.871 143.136a6.15 6.15 0 01-4.75 5.993 5.552 5.552 0 01-1.405.169z"/></symbol></svg>