<svg id="up-arrow" xmlns="http://www.w3.org/2000/svg" viewBox="0 0 343.089 343.089"><path d="M276.034 99.628L176.769 2.452a6.793 6.793 0 00-10.449 0L67.055 99.628a7.837 7.837 0 005.225 13.584h47.02v125.91a12.018 12.018 0 0010.449 9.927h83.592c4.18 0 5.224-5.224 5.224-9.927v-125.91h52.245a7.836 7.836 0 005.224-13.584zM213.34 264.722h-83.592a7.837 7.837 0 000 15.674h83.592a7.837 7.837 0 000-15.674zm0 31.347h-83.592a7.837 7.837 0 000 15.674h83.592a7.837 7.837 0 000-15.674zm0 31.346h-83.592a7.837 7.837 0 000 15.674h83.592a7.837 7.837 0 000-15.674z"/></svg>