<?xml version="1.0" encoding="utf-8"?>
<!-- Generator: Adobe Illustrator 17.1.0, SVG Export Plug-In . SVG Version: 6.00 Build 0)  -->
<!DOCTYPE svg PUBLIC "-//W3C//DTD SVG 1.1//EN" "http://www.w3.org/Graphics/SVG/1.1/DTD/svg11.dtd">
<svg version="1.1" id="Layer_1" xmlns="http://www.w3.org/2000/svg" xmlns:xlink="http://www.w3.org/1999/xlink" x="0px" y="0px"
	 viewBox="0 0 1004.9 413" enable-background="new 0 0 1004.9 413" xml:space="preserve">
<g>
	<g>
		<path fill="#131313" d="M9,1c329.3,0,658.6,0,987.9,0c0.1,1.2,0.3,2.3,0.3,3.5c0,47.3,0.1,94.6-0.1,141.9c0,2.4-1.6,5.4-3.3,7.2
			C911,236.5,828.2,319.3,745.3,402c-1.8,1.8-5.1,3.2-7.7,3.2c-156.4,0.1-312.9,0.1-469.3,0c-2.6,0-5.9-1.3-7.7-3.2
			C177.6,319.3,94.9,236.4,12,153.7c-2.4-2.4-3.4-4.9-3.4-8.3C8.7,98.9,8.6,52.4,8.7,6C8.7,4.3,8.9,2.7,9,1z"/>
		<path fill="#F40638" d="M1004.9,1c0,49.5,0.1,99-0.1,148.5c0,2.6-1.4,5.8-3.2,7.7c-84,84.3-168.2,168.4-252.2,252.6
			c-2.5,2.5-4.9,3.3-8.3,3.3c-158.8-0.1-317.6-0.1-476.4,0c-3.4,0-5.8-1-8.2-3.4c-84-84.2-168.2-168.3-252.3-252.5
			c-0.9-0.9-2-1.4-3.1-2.1C1,103.7,1,52.3,1,1c2.7,0,5.3,0,8,0C8.9,2.7,8.7,4.3,8.7,6c0,46.5,0,93-0.1,139.4c0,3.4,0.9,5.9,3.4,8.3
			C94.9,236.4,177.6,319.3,260.6,402c1.8,1.8,5.1,3.2,7.7,3.2c156.4,0.1,312.9,0.1,469.3,0c2.6,0,5.9-1.3,7.7-3.2
			c82.9-82.7,165.7-165.5,248.5-248.4c1.8-1.8,3.3-4.7,3.3-7.2c0.2-47.3,0.1-94.6,0.1-141.9c0-1.2-0.2-2.3-0.3-3.5
			C999.5,1,1002.2,1,1004.9,1z"/>
	</g>
</g>
</svg>
